{
    "asset" : {
        "generator" : "Khronos glTF Blender I/O v1.5.17",
        "version" : "2.0"
    },
    "scene" : 0,
    "scenes" : [
        {
            "name" : "Scene",
            "nodes" : [
                7
            ]
        }
    ],
    "nodes" : [
        {
            "mesh" : 0,
            "name" : "Cube.007",
            "rotation" : [
                -0.7071068286895752,
                0,
                0,
                0.7071067094802856
            ],
            "scale" : [
                1,
                1,
                0.20000000298023224
            ],
            "translation" : [
                0.27105438709259033,
                1.4292020797729492,
                17.463863372802734
            ]
        },
        {
            "mesh" : 0,
            "name" : "Cube.008",
            "rotation" : [
                -0.7071068286895752,
                0,
                0,
                0.7071067094802856
            ],
            "scale" : [
                1,
                1,
                0.20000000298023224
            ],
            "translation" : [
                2.8320937156677246,
                -1.6440454721450806,
                17.463863372802734
            ]
        },
        {
            "mesh" : 0,
            "name" : "Cube.009",
            "rotation" : [
                -0.7071068286895752,
                0,
                0,
                0.7071067094802856
            ],
            "scale" : [
                1,
                1,
                0.20000000298023224
            ],
            "translation" : [
                -1.9779584407806396,
                3.5621368885040283,
                17.463863372802734
            ]
        },
        {
            "mesh" : 1,
            "name" : "Cube.010",
            "rotation" : [
                -0.6822227835655212,
                -0.22409306466579437,
                -0.20538555085659027,
                0.6649594902992249
            ],
            "scale" : [
                0.2713779807090759,
                0.4294838309288025,
                0.0543997623026371
            ],
            "translation" : [
                16.538843154907227,
                2.7744855880737305,
                8.21484661102295
            ]
        },
        {
            "mesh" : 0,
            "name" : "Cube.011",
            "rotation" : [
                -0.7071068286895752,
                0,
                0,
                0.7071067094802856
            ],
            "scale" : [
                1,
                1,
                0.20000000298023224
            ],
            "translation" : [
                1.0788317918777466,
                -4.001881122589111,
                17.463863372802734
            ]
        },
        {
            "mesh" : 2,
            "name" : "Vert",
            "rotation" : [
                -0.7071068286895752,
                0,
                0,
                0.7071067094802856
            ],
            "scale" : [
                1,
                1,
                0.20000000298023224
            ],
            "translation" : [
                1.9572139978408813,
                -5.090806007385254,
                17.302522659301758
            ]
        },
        {
            "mesh" : 3,
            "name" : "Vert.001",
            "rotation" : [
                -0.7071068286895752,
                0,
                0,
                0.7071067094802856
            ],
            "scale" : [
                1,
                1,
                0.20000000298023224
            ],
            "translation" : [
                -0.2767658233642578,
                -5.090806007385254,
                17.302522659301758
            ]
        },
        {
            "children" : [
                0,
                1,
                2,
                3,
                4,
                5,
                6
            ],
            "mesh" : 4,
            "name" : "Background Tunnel",
            "rotation" : [
                0.7071068286895752,
                0,
                0,
                0.7071068286895752
            ],
            "scale" : [
                1,
                5,
                1
            ],
            "translation" : [
                1.8219761848449707,
                3.395996332168579,
                3.3578968048095703
            ]
        }
    ],
    "materials" : [
        {
            "doubleSided" : true,
            "name" : "Metal Band Big ",
            "pbrMetallicRoughness" : {
                "baseColorFactor" : [
                    0.7356585264205933,
                    0.6595179438591003,
                    0.03354836627840996,
                    1
                ],
                "metallicFactor" : 0.3014706075191498,
                "roughnessFactor" : 0.5732620358467102
            }
        },
        {
            "doubleSided" : true,
            "emissiveFactor" : [
                1,
                0.381074883043766,
                0.34960344433784485
            ],
            "name" : "Dim Emission Red (Back)",
            "pbrMetallicRoughness" : {}
        },
        {
            "doubleSided" : true,
            "name" : "Dark Rubber",
            "pbrMetallicRoughness" : {
                "baseColorFactor" : [
                    0.015040016733109951,
                    0.015040016733109951,
                    0.015040016733109951,
                    1
                ],
                "metallicFactor" : 0,
                "roughnessFactor" : 0.6909090876579285
            }
        },
        {
            "doubleSided" : true,
            "name" : "Metal Band Small Wire",
            "pbrMetallicRoughness" : {
                "baseColorFactor" : [
                    0.22679564356803894,
                    0.22679564356803894,
                    0.22679564356803894,
                    1
                ],
                "metallicFactor" : 0.4999999403953552,
                "roughnessFactor" : 0.2772727310657501
            }
        },
        {
            "doubleSided" : true,
            "emissiveFactor" : [
                1,
                1,
                1
            ],
            "name" : "Bright Light Emission (Side)",
            "pbrMetallicRoughness" : {}
        },
        {
            "doubleSided" : true,
            "name" : "Cement",
            "pbrMetallicRoughness" : {
                "baseColorFactor" : [
                    0.3843748867511749,
                    0.3843748867511749,
                    0.3843748867511749,
                    1
                ],
                "metallicFactor" : 0,
                "roughnessFactor" : 0.5
            }
        },
        {
            "doubleSided" : true,
            "name" : "Darker Tint Cement",
            "pbrMetallicRoughness" : {
                "baseColorFactor" : [
                    0.2597988247871399,
                    0.2597988247871399,
                    0.2597988247871399,
                    1
                ],
                "metallicFactor" : 0,
                "roughnessFactor" : 0.6909090876579285
            }
        }
    ],
    "meshes" : [
        {
            "name" : "Cube.007",
            "primitives" : [
                {
                    "attributes" : {
                        "POSITION" : 0,
                        "NORMAL" : 1,
                        "TEXCOORD_0" : 2
                    },
                    "indices" : 3,
                    "material" : 0
                },
                {
                    "attributes" : {
                        "POSITION" : 4,
                        "NORMAL" : 5,
                        "TEXCOORD_0" : 6
                    },
                    "indices" : 7,
                    "material" : 1
                }
            ]
        },
        {
            "name" : "Cube.003",
            "primitives" : [
                {
                    "attributes" : {
                        "POSITION" : 8,
                        "NORMAL" : 9,
                        "TEXCOORD_0" : 10
                    },
                    "indices" : 11,
                    "material" : 2
                },
                {
                    "attributes" : {
                        "POSITION" : 12,
                        "NORMAL" : 13,
                        "TEXCOORD_0" : 14
                    },
                    "indices" : 15,
                    "material" : 3
                },
                {
                    "attributes" : {
                        "POSITION" : 16,
                        "NORMAL" : 17,
                        "TEXCOORD_0" : 18
                    },
                    "indices" : 19,
                    "material" : 4
                }
            ]
        },
        {
            "name" : "Vert",
            "primitives" : [
                {
                    "attributes" : {
                        "POSITION" : 20,
                        "NORMAL" : 21,
                        "TEXCOORD_0" : 22
                    },
                    "indices" : 23,
                    "material" : 3
                }
            ]
        },
        {
            "name" : "Vert.001",
            "primitives" : [
                {
                    "attributes" : {
                        "POSITION" : 24,
                        "NORMAL" : 25,
                        "TEXCOORD_0" : 26
                    },
                    "indices" : 27,
                    "material" : 3
                }
            ]
        },
        {
            "name" : "Cylinder.001",
            "primitives" : [
                {
                    "attributes" : {
                        "POSITION" : 28,
                        "NORMAL" : 29,
                        "TEXCOORD_0" : 30
                    },
                    "indices" : 31,
                    "material" : 5
                },
                {
                    "attributes" : {
                        "POSITION" : 32,
                        "NORMAL" : 33,
                        "TEXCOORD_0" : 34
                    },
                    "indices" : 35,
                    "material" : 6
                }
            ]
        }
    ],
    "accessors" : [
        {
            "bufferView" : 0,
            "componentType" : 5126,
            "count" : 48,
            "max" : [
                2.7045977115631104,
                1.6961133480072021,
                1
            ],
            "min" : [
                -2.7045977115631104,
                -1.5328092575073242,
                -1
            ],
            "type" : "VEC3"
        },
        {
            "bufferView" : 1,
            "componentType" : 5126,
            "count" : 48,
            "type" : "VEC3"
        },
        {
            "bufferView" : 2,
            "componentType" : 5126,
            "count" : 48,
            "type" : "VEC2"
        },
        {
            "bufferView" : 3,
            "componentType" : 5123,
            "count" : 90,
            "type" : "SCALAR"
        },
        {
            "bufferView" : 4,
            "componentType" : 5126,
            "count" : 24,
            "max" : [
                1.046926736831665,
                2.0393762588500977,
                0.5080704689025879
            ],
            "min" : [
                -1.046926736831665,
                1.4689570665359497,
                -0.5080704689025879
            ],
            "type" : "VEC3"
        },
        {
            "bufferView" : 5,
            "componentType" : 5126,
            "count" : 24,
            "type" : "VEC3"
        },
        {
            "bufferView" : 6,
            "componentType" : 5126,
            "count" : 24,
            "type" : "VEC2"
        },
        {
            "bufferView" : 7,
            "componentType" : 5123,
            "count" : 42,
            "type" : "SCALAR"
        },
        {
            "bufferView" : 8,
            "componentType" : 5126,
            "count" : 2592,
            "max" : [
                1.241133213043213,
                1.048737645149231,
                43.1533203125
            ],
            "min" : [
                -103.82208251953125,
                -44.76414108276367,
                -141.7104949951172
            ],
            "type" : "VEC3"
        },
        {
            "bufferView" : 9,
            "componentType" : 5126,
            "count" : 2592,
            "type" : "VEC3"
        },
        {
            "bufferView" : 10,
            "componentType" : 5126,
            "count" : 2592,
            "type" : "VEC2"
        },
        {
            "bufferView" : 11,
            "componentType" : 5123,
            "count" : 3888,
            "type" : "SCALAR"
        },
        {
            "bufferView" : 12,
            "componentType" : 5126,
            "count" : 376,
            "max" : [
                1,
                1.1389265060424805,
                2.1944947242736816
            ],
            "min" : [
                -104.40713500976562,
                -43.890625,
                -121.76284790039062
            ],
            "type" : "VEC3"
        },
        {
            "bufferView" : 13,
            "componentType" : 5126,
            "count" : 376,
            "type" : "VEC3"
        },
        {
            "bufferView" : 14,
            "componentType" : 5126,
            "count" : 376,
            "type" : "VEC2"
        },
        {
            "bufferView" : 15,
            "componentType" : 5123,
            "count" : 624,
            "type" : "SCALAR"
        },
        {
            "bufferView" : 16,
            "componentType" : 5126,
            "count" : 288,
            "max" : [
                -1,
                0.6075108647346497,
                2.009575843811035
            ],
            "min" : [
                -102.85613250732422,
                -42.51871871948242,
                -121.61853790283203
            ],
            "type" : "VEC3"
        },
        {
            "bufferView" : 17,
            "componentType" : 5126,
            "count" : 288,
            "type" : "VEC3"
        },
        {
            "bufferView" : 18,
            "componentType" : 5126,
            "count" : 288,
            "type" : "VEC2"
        },
        {
            "bufferView" : 19,
            "componentType" : 5123,
            "count" : 432,
            "type" : "SCALAR"
        },
        {
            "bufferView" : 20,
            "componentType" : 5126,
            "count" : 432,
            "max" : [
                2.82738995552063,
                0.9300001263618469,
                51.22027587890625
            ],
            "min" : [
                -3.678154706954956,
                -0.9300001859664917,
                -8.940696716308594e-08
            ],
            "type" : "VEC3"
        },
        {
            "bufferView" : 21,
            "componentType" : 5126,
            "count" : 432,
            "type" : "VEC3"
        },
        {
            "bufferView" : 22,
            "componentType" : 5126,
            "count" : 432,
            "type" : "VEC2"
        },
        {
            "bufferView" : 23,
            "componentType" : 5123,
            "count" : 648,
            "type" : "SCALAR"
        },
        {
            "bufferView" : 24,
            "componentType" : 5126,
            "count" : 432,
            "max" : [
                2.827389717102051,
                0.9300001263618469,
                51.22027587890625
            ],
            "min" : [
                -3.678154706954956,
                -0.9300001263618469,
                -7.839318527658179e-08
            ],
            "type" : "VEC3"
        },
        {
            "bufferView" : 25,
            "componentType" : 5126,
            "count" : 432,
            "type" : "VEC3"
        },
        {
            "bufferView" : 26,
            "componentType" : 5126,
            "count" : 432,
            "type" : "VEC2"
        },
        {
            "bufferView" : 27,
            "componentType" : 5123,
            "count" : 648,
            "type" : "SCALAR"
        },
        {
            "bufferView" : 28,
            "componentType" : 5126,
            "count" : 3350,
            "max" : [
                20,
                5.000006198883057,
                20
            ],
            "min" : [
                -20,
                -5,
                -0.21458199620246887
            ],
            "type" : "VEC3"
        },
        {
            "bufferView" : 29,
            "componentType" : 5126,
            "count" : 3350,
            "type" : "VEC3"
        },
        {
            "bufferView" : 30,
            "componentType" : 5126,
            "count" : 3350,
            "type" : "VEC2"
        },
        {
            "bufferView" : 31,
            "componentType" : 5123,
            "count" : 6606,
            "type" : "SCALAR"
        },
        {
            "bufferView" : 32,
            "componentType" : 5126,
            "count" : 2266,
            "max" : [
                15.085017204284668,
                3.832876205444336,
                18.21938705444336
            ],
            "min" : [
                -12.155556678771973,
                -4.843071937561035,
                10.976264953613281
            ],
            "type" : "VEC3"
        },
        {
            "bufferView" : 33,
            "componentType" : 5126,
            "count" : 2266,
            "type" : "VEC3"
        },
        {
            "bufferView" : 34,
            "componentType" : 5126,
            "count" : 2266,
            "type" : "VEC2"
        },
        {
            "bufferView" : 35,
            "componentType" : 5123,
            "count" : 3936,
            "type" : "SCALAR"
        }
    ],
    "bufferViews" : [
        {
            "buffer" : 0,
            "byteLength" : 576,
            "byteOffset" : 0
        },
        {
            "buffer" : 0,
            "byteLength" : 576,
            "byteOffset" : 576
        },
        {
            "buffer" : 0,
            "byteLength" : 384,
            "byteOffset" : 1152
        },
        {
            "buffer" : 0,
            "byteLength" : 180,
            "byteOffset" : 1536
        },
        {
            "buffer" : 0,
            "byteLength" : 288,
            "byteOffset" : 1716
        },
        {
            "buffer" : 0,
            "byteLength" : 288,
            "byteOffset" : 2004
        },
        {
            "buffer" : 0,
            "byteLength" : 192,
            "byteOffset" : 2292
        },
        {
            "buffer" : 0,
            "byteLength" : 84,
            "byteOffset" : 2484
        },
        {
            "buffer" : 0,
            "byteLength" : 31104,
            "byteOffset" : 2568
        },
        {
            "buffer" : 0,
            "byteLength" : 31104,
            "byteOffset" : 33672
        },
        {
            "buffer" : 0,
            "byteLength" : 20736,
            "byteOffset" : 64776
        },
        {
            "buffer" : 0,
            "byteLength" : 7776,
            "byteOffset" : 85512
        },
        {
            "buffer" : 0,
            "byteLength" : 4512,
            "byteOffset" : 93288
        },
        {
            "buffer" : 0,
            "byteLength" : 4512,
            "byteOffset" : 97800
        },
        {
            "buffer" : 0,
            "byteLength" : 3008,
            "byteOffset" : 102312
        },
        {
            "buffer" : 0,
            "byteLength" : 1248,
            "byteOffset" : 105320
        },
        {
            "buffer" : 0,
            "byteLength" : 3456,
            "byteOffset" : 106568
        },
        {
            "buffer" : 0,
            "byteLength" : 3456,
            "byteOffset" : 110024
        },
        {
            "buffer" : 0,
            "byteLength" : 2304,
            "byteOffset" : 113480
        },
        {
            "buffer" : 0,
            "byteLength" : 864,
            "byteOffset" : 115784
        },
        {
            "buffer" : 0,
            "byteLength" : 5184,
            "byteOffset" : 116648
        },
        {
            "buffer" : 0,
            "byteLength" : 5184,
            "byteOffset" : 121832
        },
        {
            "buffer" : 0,
            "byteLength" : 3456,
            "byteOffset" : 127016
        },
        {
            "buffer" : 0,
            "byteLength" : 1296,
            "byteOffset" : 130472
        },
        {
            "buffer" : 0,
            "byteLength" : 5184,
            "byteOffset" : 131768
        },
        {
            "buffer" : 0,
            "byteLength" : 5184,
            "byteOffset" : 136952
        },
        {
            "buffer" : 0,
            "byteLength" : 3456,
            "byteOffset" : 142136
        },
        {
            "buffer" : 0,
            "byteLength" : 1296,
            "byteOffset" : 145592
        },
        {
            "buffer" : 0,
            "byteLength" : 40200,
            "byteOffset" : 146888
        },
        {
            "buffer" : 0,
            "byteLength" : 40200,
            "byteOffset" : 187088
        },
        {
            "buffer" : 0,
            "byteLength" : 26800,
            "byteOffset" : 227288
        },
        {
            "buffer" : 0,
            "byteLength" : 13212,
            "byteOffset" : 254088
        },
        {
            "buffer" : 0,
            "byteLength" : 27192,
            "byteOffset" : 267300
        },
        {
            "buffer" : 0,
            "byteLength" : 27192,
            "byteOffset" : 294492
        },
        {
            "buffer" : 0,
            "byteLength" : 18128,
            "byteOffset" : 321684
        },
        {
            "buffer" : 0,
            "byteLength" : 7872,
            "byteOffset" : 339812
        }
    ],
    "buffers" : [
        {
            "byteLength" : 347684,
            "uri" : "data:application/octet-stream;base64,"
        }
    ]
}
