{
    "asset" : {
        "generator" : "Khronos glTF Blender I/O v1.5.17",
        "version" : "2.0"
    },
    "scene" : 0,
    "scenes" : [
        {
            "name" : "Scene",
            "nodes" : [
                5
            ]
        }
    ],
    "nodes" : [
        {
            "mesh" : 0,
            "name" : "Cylinder",
            "translation" : [
                0.9351907968521118,
                0.10360842943191528,
                -0.11232580244541168
            ]
        },
        {
            "mesh" : 1,
            "name" : "Cylinder.001",
            "translation" : [
                -0.0031938552856445312,
                0.9620516300201416,
                -0.11232580244541168
            ]
        },
        {
            "mesh" : 2,
            "name" : "Plane",
            "translation" : [
                0.004319667816162109,
                -0.9099709987640381,
                -0.0943860411643982
            ]
        },
        {
            "children" : [
                2
            ],
            "mesh" : 3,
            "name" : "Sphere",
            "translation" : [
                0,
                0,
                0.47962486743927
            ]
        },
        {
            "mesh" : 4,
            "name" : "Vert.002",
            "translation" : [
                0.725157618522644,
                0.7659707069396973,
                0.318143755197525
            ]
        },
        {
            "children" : [
                0,
                1,
                3,
                4
            ],
            "mesh" : 5,
            "name" : "Cube",
            "translation" : [
                1.0032806396484375,
                0.47524595260620117,
                0.1139075756072998
            ]
        }
    ],
    "materials" : [
        {
            "doubleSided" : true,
            "name" : "Metal",
            "pbrMetallicRoughness" : {
                "baseColorFactor" : [
                    0.22679564356803894,
                    0.22679564356803894,
                    0.22679564356803894,
                    1
                ],
                "metallicFactor" : 0.4999999403953552,
                "roughnessFactor" : 0.2772727310657501
            }
        },
        {
            "doubleSided" : true,
            "name" : "Dark Rubber",
            "pbrMetallicRoughness" : {
                "baseColorFactor" : [
                    0.015040016733109951,
                    0.015040016733109951,
                    0.015040016733109951,
                    1
                ],
                "metallicFactor" : 0,
                "roughnessFactor" : 0.6909090876579285
            }
        },
        {
            "doubleSided" : true,
            "name" : "Glass",
            "pbrMetallicRoughness" : {
                "baseColorTexture" : {
                    "index" : 0
                },
                "metallicFactor" : 0,
                "roughnessFactor" : 0.5
            }
        },
        {
            "doubleSided" : true,
            "name" : "Ship Base",
            "pbrMetallicRoughness" : {
                "baseColorFactor" : [
                    0.904661238193512,
                    0.7835378646850586,
                    0.11193245649337769,
                    1
                ],
                "metallicFactor" : 0.2863636612892151,
                "roughnessFactor" : 0.40909090638160706
            }
        }
    ],
    "meshes" : [
        {
            "name" : "Cylinder.004",
            "primitives" : [
                {
                    "attributes" : {
                        "POSITION" : 0,
                        "NORMAL" : 1,
                        "TEXCOORD_0" : 2
                    },
                    "indices" : 3,
                    "material" : 0
                },
                {
                    "attributes" : {
                        "POSITION" : 4,
                        "NORMAL" : 5,
                        "TEXCOORD_0" : 6
                    },
                    "indices" : 7,
                    "material" : 1
                }
            ]
        },
        {
            "name" : "Cylinder.005",
            "primitives" : [
                {
                    "attributes" : {
                        "POSITION" : 8,
                        "NORMAL" : 9,
                        "TEXCOORD_0" : 10
                    },
                    "indices" : 11,
                    "material" : 0
                },
                {
                    "attributes" : {
                        "POSITION" : 12,
                        "NORMAL" : 13,
                        "TEXCOORD_0" : 14
                    },
                    "indices" : 15,
                    "material" : 1
                }
            ]
        },
        {
            "name" : "Plane.003",
            "primitives" : [
                {
                    "attributes" : {
                        "POSITION" : 16,
                        "NORMAL" : 17,
                        "TEXCOORD_0" : 18
                    },
                    "indices" : 19,
                    "material" : 0
                }
            ]
        },
        {
            "name" : "Sphere",
            "primitives" : [
                {
                    "attributes" : {
                        "POSITION" : 20,
                        "NORMAL" : 21,
                        "TEXCOORD_0" : 22
                    },
                    "indices" : 23,
                    "material" : 0
                },
                {
                    "attributes" : {
                        "POSITION" : 24,
                        "NORMAL" : 25,
                        "TEXCOORD_0" : 26
                    },
                    "indices" : 27,
                    "material" : 2
                }
            ]
        },
        {
            "name" : "Vert.003",
            "primitives" : [
                {
                    "attributes" : {
                        "POSITION" : 28,
                        "NORMAL" : 29,
                        "TEXCOORD_0" : 30
                    },
                    "indices" : 31,
                    "material" : 0
                },
                {
                    "attributes" : {
                        "POSITION" : 32,
                        "NORMAL" : 33,
                        "TEXCOORD_0" : 34
                    },
                    "indices" : 35,
                    "material" : 1
                }
            ]
        },
        {
            "name" : "Cube.006",
            "primitives" : [
                {
                    "attributes" : {
                        "POSITION" : 36,
                        "NORMAL" : 37,
                        "TEXCOORD_0" : 38
                    },
                    "indices" : 39,
                    "material" : 3
                }
            ]
        }
    ],
    "textures" : [
        {
            "sampler" : 0,
            "source" : 0
        }
    ],
    "images" : [
        {
            "bufferView" : 28,
            "mimeType" : "image/png",
            "name" : "Artboard 17"
        }
    ],
    "accessors" : [
        {
            "bufferView" : 0,
            "componentType" : 5126,
            "count" : 798,
            "max" : [
                0.3967970907688141,
                0.3435004651546478,
                0.34350037574768066
            ],
            "min" : [
                -2.267178773880005,
                -0.3435003161430359,
                -0.34350037574768066
            ],
            "type" : "VEC3"
        },
        {
            "bufferView" : 1,
            "componentType" : 5126,
            "count" : 798,
            "type" : "VEC3"
        },
        {
            "bufferView" : 2,
            "componentType" : 5126,
            "count" : 798,
            "type" : "VEC2"
        },
        {
            "bufferView" : 3,
            "componentType" : 5123,
            "count" : 1236,
            "type" : "SCALAR"
        },
        {
            "bufferView" : 4,
            "componentType" : 5126,
            "count" : 284,
            "max" : [
                0.2582051753997803,
                0.28688785433769226,
                0.28688785433769226
            ],
            "min" : [
                -2.128586769104004,
                -0.28688785433769226,
                -0.28688785433769226
            ],
            "type" : "VEC3"
        },
        {
            "bufferView" : 5,
            "componentType" : 5126,
            "count" : 284,
            "type" : "VEC3"
        },
        {
            "bufferView" : 6,
            "componentType" : 5126,
            "count" : 284,
            "type" : "VEC2"
        },
        {
            "bufferView" : 7,
            "componentType" : 5123,
            "count" : 468,
            "type" : "SCALAR"
        },
        {
            "bufferView" : 8,
            "componentType" : 5126,
            "count" : 788,
            "max" : [
                0.3435002863407135,
                0.3967970907688141,
                0.34350037574768066
            ],
            "min" : [
                -0.3435004949569702,
                -2.3209004402160645,
                -0.34350037574768066
            ],
            "type" : "VEC3"
        },
        {
            "bufferView" : 9,
            "componentType" : 5126,
            "count" : 788,
            "type" : "VEC3"
        },
        {
            "bufferView" : 10,
            "componentType" : 5126,
            "count" : 788,
            "type" : "VEC2"
        },
        {
            "bufferView" : 11,
            "componentType" : 5123,
            "count" : 1236,
            "type" : "SCALAR"
        },
        {
            "bufferView" : 12,
            "componentType" : 5126,
            "count" : 284,
            "max" : [
                0.28688785433769226,
                0.2582051753997803,
                0.28688785433769226
            ],
            "min" : [
                -0.28688788414001465,
                -2.1823084354400635,
                -0.28688785433769226
            ],
            "type" : "VEC3"
        },
        {
            "bufferView" : 13,
            "componentType" : 5126,
            "count" : 284,
            "type" : "VEC3"
        },
        {
            "bufferView" : 14,
            "componentType" : 5126,
            "count" : 284,
            "type" : "VEC2"
        },
        {
            "bufferView" : 15,
            "componentType" : 5123,
            "count" : 468,
            "type" : "SCALAR"
        },
        {
            "bufferView" : 16,
            "componentType" : 5126,
            "count" : 240,
            "max" : [
                0.5147479176521301,
                0.21889342367649078,
                0.0777634009718895
            ],
            "min" : [
                -0.5152904391288757,
                -0.16818125545978546,
                -0.07776336371898651
            ],
            "type" : "VEC3"
        },
        {
            "bufferView" : 17,
            "componentType" : 5126,
            "count" : 240,
            "type" : "VEC3"
        },
        {
            "bufferView" : 18,
            "componentType" : 5126,
            "count" : 240,
            "type" : "VEC2"
        },
        {
            "bufferView" : 19,
            "componentType" : 5123,
            "count" : 360,
            "type" : "SCALAR"
        },
        {
            "bufferView" : 20,
            "componentType" : 5126,
            "count" : 314,
            "max" : [
                0.9108350276947021,
                0.9108352065086365,
                -3.9349359409962884e-14
            ],
            "min" : [
                -0.9108349680900574,
                -0.9108352065086365,
                -0.17578978836536407
            ],
            "type" : "VEC3"
        },
        {
            "bufferView" : 21,
            "componentType" : 5126,
            "count" : 314,
            "type" : "VEC3"
        },
        {
            "bufferView" : 22,
            "componentType" : 5126,
            "count" : 314,
            "type" : "VEC2"
        },
        {
            "bufferView" : 23,
            "componentType" : 5123,
            "count" : 480,
            "type" : "SCALAR"
        },
        {
            "bufferView" : 24,
            "componentType" : 5126,
            "count" : 304,
            "max" : [
                0.7772531509399414,
                0.7772533297538757,
                0.7772529721260071
            ],
            "min" : [
                -0.7772530317306519,
                -0.7772533297538757,
                -0.09001582115888596
            ],
            "type" : "VEC3"
        },
        {
            "bufferView" : 25,
            "componentType" : 5126,
            "count" : 304,
            "type" : "VEC3"
        },
        {
            "bufferView" : 26,
            "componentType" : 5126,
            "count" : 304,
            "type" : "VEC2"
        },
        {
            "bufferView" : 27,
            "componentType" : 5123,
            "count" : 432,
            "type" : "SCALAR"
        },
        {
            "bufferView" : 29,
            "componentType" : 5126,
            "count" : 576,
            "max" : [
                0.12182463705539703,
                0.11944500356912613,
                0.5999266505241394
            ],
            "min" : [
                -1.572139859199524,
                -0.39640945196151733,
                -7.450580596923828e-09
            ],
            "type" : "VEC3"
        },
        {
            "bufferView" : 30,
            "componentType" : 5126,
            "count" : 576,
            "type" : "VEC3"
        },
        {
            "bufferView" : 31,
            "componentType" : 5126,
            "count" : 576,
            "type" : "VEC2"
        },
        {
            "bufferView" : 32,
            "componentType" : 5123,
            "count" : 864,
            "type" : "SCALAR"
        },
        {
            "bufferView" : 33,
            "componentType" : 5126,
            "count" : 288,
            "max" : [
                0.08887415379285812,
                0.08649452775716782,
                0.5550020337104797
            ],
            "min" : [
                -1.539189338684082,
                -0.2793348431587219,
                0.054349735379219055
            ],
            "type" : "VEC3"
        },
        {
            "bufferView" : 34,
            "componentType" : 5126,
            "count" : 288,
            "type" : "VEC3"
        },
        {
            "bufferView" : 35,
            "componentType" : 5126,
            "count" : 288,
            "type" : "VEC2"
        },
        {
            "bufferView" : 36,
            "componentType" : 5123,
            "count" : 432,
            "type" : "SCALAR"
        },
        {
            "bufferView" : 37,
            "componentType" : 5126,
            "count" : 112,
            "max" : [
                1,
                1,
                0.3181529641151428
            ],
            "min" : [
                -1,
                -1,
                -0.5460318326950073
            ],
            "type" : "VEC3"
        },
        {
            "bufferView" : 38,
            "componentType" : 5126,
            "count" : 112,
            "type" : "VEC3"
        },
        {
            "bufferView" : 39,
            "componentType" : 5126,
            "count" : 112,
            "type" : "VEC2"
        },
        {
            "bufferView" : 40,
            "componentType" : 5123,
            "count" : 180,
            "type" : "SCALAR"
        }
    ],
    "bufferViews" : [
        {
            "buffer" : 0,
            "byteLength" : 9576,
            "byteOffset" : 0
        },
        {
            "buffer" : 0,
            "byteLength" : 9576,
            "byteOffset" : 9576
        },
        {
            "buffer" : 0,
            "byteLength" : 6384,
            "byteOffset" : 19152
        },
        {
            "buffer" : 0,
            "byteLength" : 2472,
            "byteOffset" : 25536
        },
        {
            "buffer" : 0,
            "byteLength" : 3408,
            "byteOffset" : 28008
        },
        {
            "buffer" : 0,
            "byteLength" : 3408,
            "byteOffset" : 31416
        },
        {
            "buffer" : 0,
            "byteLength" : 2272,
            "byteOffset" : 34824
        },
        {
            "buffer" : 0,
            "byteLength" : 936,
            "byteOffset" : 37096
        },
        {
            "buffer" : 0,
            "byteLength" : 9456,
            "byteOffset" : 38032
        },
        {
            "buffer" : 0,
            "byteLength" : 9456,
            "byteOffset" : 47488
        },
        {
            "buffer" : 0,
            "byteLength" : 6304,
            "byteOffset" : 56944
        },
        {
            "buffer" : 0,
            "byteLength" : 2472,
            "byteOffset" : 63248
        },
        {
            "buffer" : 0,
            "byteLength" : 3408,
            "byteOffset" : 65720
        },
        {
            "buffer" : 0,
            "byteLength" : 3408,
            "byteOffset" : 69128
        },
        {
            "buffer" : 0,
            "byteLength" : 2272,
            "byteOffset" : 72536
        },
        {
            "buffer" : 0,
            "byteLength" : 936,
            "byteOffset" : 74808
        },
        {
            "buffer" : 0,
            "byteLength" : 2880,
            "byteOffset" : 75744
        },
        {
            "buffer" : 0,
            "byteLength" : 2880,
            "byteOffset" : 78624
        },
        {
            "buffer" : 0,
            "byteLength" : 1920,
            "byteOffset" : 81504
        },
        {
            "buffer" : 0,
            "byteLength" : 720,
            "byteOffset" : 83424
        },
        {
            "buffer" : 0,
            "byteLength" : 3768,
            "byteOffset" : 84144
        },
        {
            "buffer" : 0,
            "byteLength" : 3768,
            "byteOffset" : 87912
        },
        {
            "buffer" : 0,
            "byteLength" : 2512,
            "byteOffset" : 91680
        },
        {
            "buffer" : 0,
            "byteLength" : 960,
            "byteOffset" : 94192
        },
        {
            "buffer" : 0,
            "byteLength" : 3648,
            "byteOffset" : 95152
        },
        {
            "buffer" : 0,
            "byteLength" : 3648,
            "byteOffset" : 98800
        },
        {
            "buffer" : 0,
            "byteLength" : 2432,
            "byteOffset" : 102448
        },
        {
            "buffer" : 0,
            "byteLength" : 864,
            "byteOffset" : 104880
        },
        {
            "buffer" : 0,
            "byteLength" : 47927,
            "byteOffset" : 105744
        },
        {
            "buffer" : 0,
            "byteLength" : 6912,
            "byteOffset" : 153672
        },
        {
            "buffer" : 0,
            "byteLength" : 6912,
            "byteOffset" : 160584
        },
        {
            "buffer" : 0,
            "byteLength" : 4608,
            "byteOffset" : 167496
        },
        {
            "buffer" : 0,
            "byteLength" : 1728,
            "byteOffset" : 172104
        },
        {
            "buffer" : 0,
            "byteLength" : 3456,
            "byteOffset" : 173832
        },
        {
            "buffer" : 0,
            "byteLength" : 3456,
            "byteOffset" : 177288
        },
        {
            "buffer" : 0,
            "byteLength" : 2304,
            "byteOffset" : 180744
        },
        {
            "buffer" : 0,
            "byteLength" : 864,
            "byteOffset" : 183048
        },
        {
            "buffer" : 0,
            "byteLength" : 1344,
            "byteOffset" : 183912
        },
        {
            "buffer" : 0,
            "byteLength" : 1344,
            "byteOffset" : 185256
        },
        {
            "buffer" : 0,
            "byteLength" : 896,
            "byteOffset" : 186600
        },
        {
            "buffer" : 0,
            "byteLength" : 360,
            "byteOffset" : 187496
        }
    ],
    "samplers" : [
        {
            "magFilter" : 9729,
            "minFilter" : 9987
        }
    ],
    "buffers" : [
        {
            "byteLength" : 187856,
            "uri" : "data:application/octet-stream;base64,"
        }
    ]
}
